<svg width="566" height="320" viewBox="0 0 566 320" fill="none" xmlns="http://www.w3.org/2000/svg">
<rect width="566" height="320" fill="#DA1919"/>
<path d="M71.1818 193V178H74.0909C74.803 177.258 75.4167 176.455 75.9318 175.591C76.447 174.727 76.8939 173.705 77.2727 172.523C77.6667 171.326 78 169.871 78.2727 168.159C78.5455 166.432 78.7879 164.348 79 161.909L80.1818 148.091H102.364V178H107.727V193H102.364V183H76.5455V193H71.1818ZM80.1818 178H97V153.091H85.1818L84.2727 161.909C83.8939 165.561 83.4242 168.75 82.8636 171.477C82.303 174.205 81.4091 176.379 80.1818 178ZM114.847 196.091V148.091H120.028V153.636H120.665C121.059 153.03 121.604 152.258 122.301 151.318C123.013 150.364 124.028 149.515 125.347 148.773C126.68 148.015 128.483 147.636 130.756 147.636C133.695 147.636 136.286 148.371 138.528 149.841C140.771 151.311 142.521 153.394 143.778 156.091C145.036 158.788 145.665 161.97 145.665 165.636C145.665 169.333 145.036 172.538 143.778 175.25C142.521 177.947 140.778 180.038 138.551 181.523C136.324 182.992 133.756 183.727 130.847 183.727C128.604 183.727 126.809 183.356 125.46 182.614C124.112 181.856 123.074 181 122.347 180.045C121.619 179.076 121.059 178.273 120.665 177.636H120.21V196.091H114.847ZM120.119 165.545C120.119 168.182 120.506 170.508 121.278 172.523C122.051 174.523 123.18 176.091 124.665 177.227C126.15 178.348 127.968 178.909 130.119 178.909C132.362 178.909 134.233 178.318 135.733 177.136C137.248 175.939 138.384 174.333 139.142 172.318C139.915 170.288 140.301 168.03 140.301 165.545C140.301 163.091 139.922 160.879 139.165 158.909C138.422 156.924 137.294 155.356 135.778 154.205C134.278 153.038 132.392 152.455 130.119 152.455C127.938 152.455 126.104 153.008 124.619 154.114C123.134 155.205 122.013 156.735 121.256 158.705C120.498 160.659 120.119 162.939 120.119 165.545ZM156.051 196.091C155.142 196.091 154.331 196.015 153.619 195.864C152.907 195.727 152.415 195.591 152.142 195.455L153.506 190.727C154.809 191.061 155.96 191.182 156.96 191.091C157.96 191 158.847 190.553 159.619 189.75C160.407 188.962 161.127 187.682 161.778 185.909L162.778 183.182L149.869 148.091H155.688L165.324 175.909H165.688L175.324 148.091H181.142L166.324 188.091C165.657 189.894 164.831 191.386 163.847 192.568C162.862 193.765 161.718 194.652 160.415 195.227C159.127 195.803 157.672 196.091 156.051 196.091ZM209.767 148.091V153.091H193.585V183H188.222V148.091H209.767ZM229.966 183.727C226.814 183.727 224.049 182.977 221.67 181.477C219.307 179.977 217.458 177.879 216.125 175.182C214.807 172.485 214.148 169.333 214.148 165.727C214.148 162.091 214.807 158.917 216.125 156.205C217.458 153.492 219.307 151.386 221.67 149.886C224.049 148.386 226.814 147.636 229.966 147.636C233.117 147.636 235.875 148.386 238.239 149.886C240.617 151.386 242.466 153.492 243.784 156.205C245.117 158.917 245.784 162.091 245.784 165.727C245.784 169.333 245.117 172.485 243.784 175.182C242.466 177.879 240.617 179.977 238.239 181.477C235.875 182.977 233.117 183.727 229.966 183.727ZM229.966 178.909C232.36 178.909 234.33 178.295 235.875 177.068C237.42 175.841 238.564 174.227 239.307 172.227C240.049 170.227 240.42 168.061 240.42 165.727C240.42 163.394 240.049 161.22 239.307 159.205C238.564 157.189 237.42 155.561 235.875 154.318C234.33 153.076 232.36 152.455 229.966 152.455C227.572 152.455 225.602 153.076 224.057 154.318C222.511 155.561 221.367 157.189 220.625 159.205C219.883 161.22 219.511 163.394 219.511 165.727C219.511 168.061 219.883 170.227 220.625 172.227C221.367 174.227 222.511 175.841 224.057 177.068C225.602 178.295 227.572 178.909 229.966 178.909ZM268.608 183.727C265.244 183.727 262.343 182.985 259.903 181.5C257.479 180 255.608 177.909 254.29 175.227C252.987 172.53 252.335 169.394 252.335 165.818C252.335 162.242 252.987 159.091 254.29 156.364C255.608 153.621 257.441 151.485 259.79 149.955C262.153 148.409 264.911 147.636 268.062 147.636C269.881 147.636 271.676 147.939 273.449 148.545C275.222 149.152 276.835 150.136 278.29 151.5C279.744 152.848 280.903 154.636 281.767 156.864C282.631 159.091 283.062 161.833 283.062 165.091V167.364H256.153V162.727H277.608C277.608 160.758 277.214 159 276.426 157.455C275.653 155.909 274.547 154.689 273.108 153.795C271.684 152.902 270.002 152.455 268.062 152.455C265.926 152.455 264.078 152.985 262.517 154.045C260.972 155.091 259.782 156.455 258.949 158.136C258.116 159.818 257.699 161.621 257.699 163.545V166.636C257.699 169.273 258.153 171.508 259.062 173.341C259.987 175.159 261.267 176.545 262.903 177.5C264.54 178.439 266.441 178.909 268.608 178.909C270.017 178.909 271.29 178.712 272.426 178.318C273.578 177.909 274.57 177.303 275.403 176.5C276.237 175.682 276.881 174.667 277.335 173.455L282.517 174.909C281.972 176.667 281.055 178.212 279.767 179.545C278.479 180.864 276.888 181.894 274.994 182.636C273.1 183.364 270.972 183.727 268.608 183.727ZM323.403 194.909V136.455H328.767V194.909H323.403ZM323.403 183.727C321.04 183.727 318.888 183.303 316.949 182.455C315.009 181.591 313.343 180.371 311.949 178.795C310.555 177.205 309.479 175.303 308.722 173.091C307.964 170.879 307.585 168.424 307.585 165.727C307.585 163 307.964 160.53 308.722 158.318C309.479 156.091 310.555 154.182 311.949 152.591C313.343 151 315.009 149.78 316.949 148.932C318.888 148.068 321.04 147.636 323.403 147.636H325.04V183.727H323.403ZM323.403 178.909H324.312V152.455H323.403C321.616 152.455 320.063 152.818 318.744 153.545C317.426 154.258 316.335 155.235 315.472 156.477C314.623 157.705 313.987 159.114 313.562 160.705C313.153 162.295 312.949 163.97 312.949 165.727C312.949 168.061 313.32 170.227 314.062 172.227C314.805 174.227 315.949 175.841 317.494 177.068C319.04 178.295 321.009 178.909 323.403 178.909ZM328.767 183.727H327.131V147.636H328.767C331.131 147.636 333.282 148.068 335.222 148.932C337.161 149.78 338.828 151 340.222 152.591C341.616 154.182 342.691 156.091 343.449 158.318C344.206 160.53 344.585 163 344.585 165.727C344.585 168.424 344.206 170.879 343.449 173.091C342.691 175.303 341.616 177.205 340.222 178.795C338.828 180.371 337.161 181.591 335.222 182.455C333.282 183.303 331.131 183.727 328.767 183.727ZM328.767 178.909C330.57 178.909 332.123 178.561 333.426 177.864C334.744 177.152 335.828 176.182 336.676 174.955C337.54 173.712 338.176 172.303 338.585 170.727C339.009 169.136 339.222 167.47 339.222 165.727C339.222 163.394 338.85 161.22 338.108 159.205C337.366 157.189 336.222 155.561 334.676 154.318C333.131 153.076 331.161 152.455 328.767 152.455H327.858V178.909H328.767ZM366.966 183.727C363.814 183.727 361.049 182.977 358.67 181.477C356.307 179.977 354.458 177.879 353.125 175.182C351.807 172.485 351.148 169.333 351.148 165.727C351.148 162.091 351.807 158.917 353.125 156.205C354.458 153.492 356.307 151.386 358.67 149.886C361.049 148.386 363.814 147.636 366.966 147.636C370.117 147.636 372.875 148.386 375.239 149.886C377.617 151.386 379.466 153.492 380.784 156.205C382.117 158.917 382.784 162.091 382.784 165.727C382.784 169.333 382.117 172.485 380.784 175.182C379.466 177.879 377.617 179.977 375.239 181.477C372.875 182.977 370.117 183.727 366.966 183.727ZM366.966 178.909C369.36 178.909 371.33 178.295 372.875 177.068C374.42 175.841 375.564 174.227 376.307 172.227C377.049 170.227 377.42 168.061 377.42 165.727C377.42 163.394 377.049 161.22 376.307 159.205C375.564 157.189 374.42 155.561 372.875 154.318C371.33 153.076 369.36 152.455 366.966 152.455C364.572 152.455 362.602 153.076 361.057 154.318C359.511 155.561 358.367 157.189 357.625 159.205C356.883 161.22 356.511 163.394 356.511 165.727C356.511 168.061 356.883 170.227 357.625 172.227C358.367 174.227 359.511 175.841 361.057 177.068C362.602 178.295 364.572 178.909 366.966 178.909ZM386.409 153.091V148.091H414.773V153.091H403.318V183H397.955V153.091H386.409ZM434.966 183.727C431.814 183.727 429.049 182.977 426.67 181.477C424.307 179.977 422.458 177.879 421.125 175.182C419.807 172.485 419.148 169.333 419.148 165.727C419.148 162.091 419.807 158.917 421.125 156.205C422.458 153.492 424.307 151.386 426.67 149.886C429.049 148.386 431.814 147.636 434.966 147.636C438.117 147.636 440.875 148.386 443.239 149.886C445.617 151.386 447.466 153.492 448.784 156.205C450.117 158.917 450.784 162.091 450.784 165.727C450.784 169.333 450.117 172.485 448.784 175.182C447.466 177.879 445.617 179.977 443.239 181.477C440.875 182.977 438.117 183.727 434.966 183.727ZM434.966 178.909C437.36 178.909 439.33 178.295 440.875 177.068C442.42 175.841 443.564 174.227 444.307 172.227C445.049 170.227 445.42 168.061 445.42 165.727C445.42 163.394 445.049 161.22 444.307 159.205C443.564 157.189 442.42 155.561 440.875 154.318C439.33 153.076 437.36 152.455 434.966 152.455C432.572 152.455 430.602 153.076 429.057 154.318C427.511 155.561 426.367 157.189 425.625 159.205C424.883 161.22 424.511 163.394 424.511 165.727C424.511 168.061 424.883 170.227 425.625 172.227C426.367 174.227 427.511 175.841 429.057 177.068C430.602 178.295 432.572 178.909 434.966 178.909Z" fill="black"/>
</svg>
